# xmcd
#
# Track frame offsets:
#	150
#	18584
#	65050
#	91291
#	130729
#	148381
#	183640
#
# Disc length: 3545 seconds
#
# Revision: 0
# Processed by: cddbd v1.5.1PL2 Copyright (c) Steve Scherf et al.
# Submitted via: dBpowerAMP V4.0
#
DISCID=690dd707
DTITLE=Albert King - Live Wire - Blues Power
DYEAR=1979
DGENRE=Blues
TTITLE0=Watermelon Man
TTITLE1=Blues Power
TTITLE2=Night Stomp
TTITLE3=Blues At Sunrise
TTITLE4=Please Love Me
TTITLE5=Look Out
TTITLE6=DATA
EXTD=Enhaced CD. 24 bit Remastered from Stax Records.\nIt has a multimedia information (Video, Biography and Pictures)
EXTT0=
EXTT1=
EXTT2=
EXTT3=
EXTT4=
EXTT5=
EXTT6=
PLAYORDER=
